<?xml version="1.0" standalone="no"?>
<!DOCTYPE svg PUBLIC "-//W3C//DTD SVG 20010904//EN"
 "http://www.w3.org/TR/2001/REC-SVG-20010904/DTD/svg10.dtd">
<svg version="1.0" xmlns="http://www.w3.org/2000/svg"
 width="500.000000pt" height="500.000000pt" viewBox="0 0 500.000000 500.000000"
 preserveAspectRatio="xMidYMid meet">
<metadata>
Created by potrace 1.14, written by Peter Selinger 2001-2017
</metadata>
<g transform="translate(0.000000,500.000000) scale(0.100000,-0.100000)"
fill="#000000" stroke="none">
<path d="M2298 4425 c-2 -2 -26 -7 -53 -10 -85 -11 -274 -55 -369 -87 -106
-35 -288 -120 -369 -172 -32 -20 -61 -36 -66 -36 -5 0 -11 -4 -13 -8 -1 -5
-25 -23 -53 -42 -27 -19 -55 -39 -61 -45 -7 -5 -31 -26 -55 -45 -121 -95 -295
-295 -393 -448 -141 -222 -252 -520 -281 -757 -3 -27 -8 -63 -11 -78 -7 -32
-6 -313 0 -367 13 -110 18 -139 35 -230 97 -494 426 -963 871 -1240 229 -143
531 -251 780 -278 136 -15 462 -7 560 13 14 3 34 7 45 9 290 60 565 182 787
349 93 70 168 136 224 197 23 25 59 63 80 85 193 205 389 601 439 890 2 17 7
41 10 55 28 137 28 484 -1 635 -77 414 -248 751 -524 1034 -302 307 -655 487
-1120 567 -39 7 -456 15 -462 9z m427 -289 c17 -3 44 -8 60 -11 444 -75 848
-343 1097 -730 184 -285 272 -602 263 -945 -2 -80 -6 -156 -10 -170 -3 -14 -8
-42 -10 -63 -3 -22 -17 -82 -31 -135 -143 -543 -550 -974 -1083 -1147 -62 -21
-115 -34 -118 -31 -4 4 -1 30 7 58 7 29 14 86 16 127 5 110 66 271 136 358 62
77 90 190 77 318 -11 117 -2 205 34 330 43 148 71 211 129 295 25 36 58 89 72
118 72 142 177 266 272 320 127 72 183 216 127 329 -17 36 -20 38 -61 35 -31
-2 -50 3 -69 18 -14 11 -29 20 -33 20 -4 0 -14 -18 -23 -40 -9 -23 -22 -40
-31 -40 -21 0 -20 11 10 99 32 92 36 154 17 229 -20 78 -69 182 -85 182 -15
-1 -61 -35 -148 -110 -115 -100 -134 -116 -200 -165 -36 -27 -67 -52 -70 -55
-5 -6 -172 -116 -232 -153 -22 -14 -48 -17 -125 -15 -95 3 -100 2 -173 -34
-87 -43 -132 -69 -214 -122 -81 -53 -145 -73 -251 -81 -171 -12 -247 -32 -312
-81 -61 -46 -36 -109 102 -253 l76 -79 -49 -80 c-27 -44 -62 -111 -78 -149
-30 -72 -63 -126 -114 -183 -54 -61 -161 -230 -223 -349 -32 -64 -69 -127 -81
-139 -22 -25 -173 -122 -189 -122 -13 0 -30 20 -83 100 -136 205 -225 449
-261 710 -5 30 -8 136 -7 235 0 146 5 200 23 284 151 707 702 1222 1406 1316
96 13 373 13 440 1z"/>
</g>
</svg>
